<svg width="100" height="100" version="1.1" viewBox="0.0 0.0 241.21522309711287 234.6955380577428" fill="none" stroke="none" stroke-linecap="square" stroke-miterlimit="10" xmlns:xlink="http://www.w3.org/1999/xlink" xmlns="http://www.w3.org/2000/svg">
<style>
    * {
      fill: #303F9F;
    }
    @media (prefers-color-scheme: dark) {
      * {
        fill: white;
      }
    }
  </style>
<g clip-path="url(#p.0)"><path fill="#000000" fill-opacity="0.0" d="m0 0l241.21523 0l0 234.69554l-241.21523 0z" fill-rule="evenodd"/><path fill="#000000" fill-opacity="0.0" d="m0 0l241.22835 0l0 234.70866l-241.22835 0z" fill-rule="evenodd"/><path fill="#ffffff" d="m39.39116 163.23433q-1.265625 0 -1.984375 -0.890625q-0.703125 -0.90625 -0.4375 -2.3125l17.53125 -83.0625q0.25 -1.421875 1.40625 -2.375q1.15625 -0.953125 2.5625 -0.953125l35.203125 0q14.59375 0 22.53125 5.765625q7.9375 5.75 7.9375 16.5q0 3.328125 -0.78125 7.046875q-1.78125 8.953125 -7.296875 15.234375q-5.5 6.265625 -13.5625 9.71875l10.625 31.234375q0.25 0.890625 0.125 1.40625q-0.25 1.15625 -1.21875 1.921875q-0.953125 0.765625 -2.109375 0.765625l-18.046875 0q-3.578125 0 -4.484375 -3.453125l-8.1875 -27.78125l-12.28125 0l-6.015625 28.03125q-0.265625 1.40625 -1.421875 2.3125q-1.140625 0.890625 -2.546875 0.890625l-17.546875 0zm45.703125 -50.046875q5.5 0 8.953125 -2.75q3.46875 -2.75 4.484375 -7.625q0.265625 -1.015625 0.265625 -2.9375q0 -3.578125 -2.3125 -5.6875q-2.296875 -2.125 -6.90625 -2.125l-14.21875 0l-4.46875 21.125l14.203125 0zm41.600647 50.046875q-1.40625 0 -2.171875 -0.890625q-0.765625 -0.90625 -0.515625 -2.3125l17.65625 -83.0625q0.265625 -1.421875 1.34375 -2.375q1.09375 -0.953125 2.5 -0.953125l17.15625 0q1.40625 0 2.171875 0.953125q0.765625 0.953125 0.515625 2.375l-5.890625 27.515625l27.390625 -28.296875q2.046875 -2.546875 5.5 -2.546875l20.109375 0q1.140625 0 1.71875 0.703125q0.578125 0.703125 0.578125 1.71875q0 1.03125 -0.765625 1.796875l-38.53125 40.453125l23.421875 40.703125q0.390625 0.765625 0.390625 1.28125q0 1.140625 -1.03125 2.046875q-1.015625 0.890625 -2.171875 0.890625l-18.9375 0q-3.328125 0 -4.609375 -2.5625l-18.3125 -31.609375l-6.65625 30.96875q-0.25 1.40625 -1.34375 2.3125q-1.078125 0.890625 -2.359375 0.890625l-17.15625 0z" fill-rule="nonzero"/></g>
</svg>